<svg width="109" height="115" viewBox="0 0 109 115" fill="none" xmlns="http://www.w3.org/2000/svg">
<circle cx="54.1875" cy="57.375" r="53.3906" fill="url(#paint0_linear_443_9640)" stroke="#2C1250" stroke-width="1.59375"/>
<path d="M54.4242 85.7557C50.3939 85.7557 46.8044 85.063 43.6557 83.6776C40.525 82.2741 38.0511 80.349 36.2338 77.902C34.4346 75.437 33.508 72.5942 33.454 69.3736H45.2211C45.293 70.723 45.7338 71.9105 46.5435 72.9361C47.3712 73.9437 48.4687 74.7263 49.8361 75.2841C51.2035 75.8419 52.7419 76.1207 54.4512 76.1207C56.2324 76.1207 57.8068 75.8059 59.1742 75.1761C60.5416 74.5464 61.6122 73.6738 62.3858 72.5582C63.1595 71.4427 63.5463 70.1562 63.5463 68.6989C63.5463 67.2235 63.1325 65.919 62.3049 64.7855C61.4952 63.634 60.3257 62.7344 58.7963 62.0866C57.285 61.4389 55.4857 61.1151 53.3986 61.1151H48.2438V52.5327H53.3986C55.1619 52.5327 56.7182 52.2268 58.0677 51.6151C59.4351 51.0033 60.4966 50.1577 61.2523 49.0781C62.008 47.9806 62.3858 46.7031 62.3858 45.2457C62.3858 43.8603 62.053 42.6458 61.3873 41.6023C60.7395 40.5407 59.8219 39.7131 58.6344 39.1193C57.4649 38.5256 56.0975 38.2287 54.5321 38.2287C52.9488 38.2287 51.5004 38.5166 50.187 39.0923C48.8735 39.6501 47.821 40.4508 47.0293 41.4943C46.2376 42.5379 45.8148 43.7614 45.7608 45.1648H34.5605C34.6145 41.9801 35.5231 39.1733 37.2864 36.7443C39.0497 34.3153 41.4247 32.4171 44.4114 31.0497C47.4161 29.6643 50.8077 28.9716 54.5861 28.9716C58.4005 28.9716 61.7381 29.6643 64.5989 31.0497C67.4597 32.4351 69.6818 34.3063 71.2651 36.6633C72.8664 39.0024 73.6581 41.6293 73.6401 44.544C73.6581 47.6387 72.6955 50.2206 70.7523 52.2898C68.8271 54.3589 66.3172 55.6723 63.2225 56.2301V56.6619C67.2888 57.1837 70.3835 58.5961 72.5066 60.8991C74.6477 63.1842 75.7092 66.045 75.6912 69.4815C75.7092 72.6302 74.8006 75.428 72.9654 77.875C71.1481 80.322 68.6382 82.2472 65.4355 83.6506C62.2329 85.054 58.5624 85.7557 54.4242 85.7557Z" fill="#FEFEFE"/>
<defs>
<linearGradient id="paint0_linear_443_9640" x1="54.1875" y1="3.1875" x2="54.1875" y2="111.562" gradientUnits="userSpaceOnUse">
<stop stop-color="#606ACB" stop-opacity="0.2"/>
<stop offset="1" stop-color="#4F5ABE" stop-opacity="0.05"/>
</linearGradient>
</defs>
</svg>
