<svg width="109" height="115" viewBox="0 0 109 115" fill="none" xmlns="http://www.w3.org/2000/svg">
<circle cx="54.2656" cy="57.375" r="53.3906" fill="url(#paint0_linear_443_9649)" stroke="#2C1250" stroke-width="1.59375"/>
<path d="M34.6852 85V76.5795L54.3599 58.3622C56.0332 56.7429 57.4366 55.2855 58.5701 53.9901C59.7217 52.6946 60.5943 51.4261 61.188 50.1847C61.7818 48.9252 62.0787 47.5668 62.0787 46.1094C62.0787 44.4901 61.7098 43.0956 60.9721 41.9261C60.2344 40.7386 59.2269 39.83 57.9494 39.2003C56.6719 38.5526 55.2235 38.2287 53.6042 38.2287C51.9129 38.2287 50.4376 38.5705 49.1781 39.2543C47.9186 39.938 46.947 40.9186 46.2633 42.196C45.5796 43.4735 45.2377 44.9938 45.2377 46.7571H34.1454C34.1454 43.1406 34.9641 40.0009 36.6014 37.3381C38.2387 34.6752 40.5327 32.6151 43.4835 31.1577C46.4342 29.7003 49.8348 28.9716 53.6852 28.9716C57.6435 28.9716 61.0891 29.6733 64.0218 31.0767C66.9726 32.4621 69.2666 34.3873 70.9039 36.8523C72.5413 39.3172 73.3599 42.142 73.3599 45.3267C73.3599 47.4138 72.9461 49.474 72.1184 51.5071C71.3088 53.5402 69.8604 55.7983 67.7733 58.2812C65.6861 60.7462 62.7444 63.706 58.948 67.1605L50.8784 75.0682V75.446H74.0886V85H34.6852Z" fill="#FEFEFE"/>
<defs>
<linearGradient id="paint0_linear_443_9649" x1="54.2656" y1="3.1875" x2="54.2656" y2="111.562" gradientUnits="userSpaceOnUse">
<stop stop-color="#606ACB" stop-opacity="0.2"/>
<stop offset="1" stop-color="#4F5ABE" stop-opacity="0.05"/>
</linearGradient>
</defs>
</svg>
