<svg width="35" height="35" viewBox="0 0 35 35" fill="none" xmlns="http://www.w3.org/2000/svg">
<path d="M32.0409 26.7311C32.0409 27.2561 31.9242 27.7957 31.6763 28.3207C31.4284 28.8457 31.1076 29.3415 30.6846 29.8082C29.9701 30.5957 29.1826 31.1644 28.293 31.529C27.418 31.8936 26.4701 32.0832 25.4492 32.0832C23.9617 32.0832 22.3721 31.7332 20.6951 31.0186C19.018 30.304 17.3409 29.3415 15.6784 28.1311C14.0013 26.9061 12.4117 25.5498 10.8951 24.0478C9.39297 22.5311 8.03672 20.9415 6.8263 19.279C5.63047 17.6165 4.66797 15.954 3.96797 14.3061C3.26797 12.6436 2.91797 11.054 2.91797 9.53734C2.91797 8.54567 3.09297 7.59775 3.44297 6.72275C3.79297 5.83317 4.34714 5.0165 5.12005 4.28734C6.05339 3.36859 7.07422 2.9165 8.15339 2.9165C8.56172 2.9165 8.97005 3.004 9.33464 3.179C9.7138 3.354 10.0492 3.6165 10.3117 3.99567L13.6951 8.76442C13.9576 9.129 14.1471 9.46442 14.2784 9.78525C14.4096 10.0915 14.4826 10.3978 14.4826 10.6748C14.4826 11.0248 14.3805 11.3748 14.1763 11.7103C13.9867 12.0457 13.7096 12.3957 13.3596 12.7457L12.2513 13.8978C12.0909 14.0582 12.018 14.2478 12.018 14.4811C12.018 14.5978 12.0326 14.6998 12.0617 14.8165C12.1055 14.9332 12.1492 15.0207 12.1784 15.1082C12.4409 15.5894 12.893 16.2165 13.5346 16.9748C14.1909 17.7332 14.8909 18.5061 15.6492 19.279C16.4367 20.0519 17.1951 20.7665 17.968 21.4228C18.7263 22.0644 19.3534 22.5019 19.8492 22.7644C19.9221 22.7936 20.0096 22.8373 20.1117 22.8811C20.2284 22.9248 20.3451 22.9394 20.4763 22.9394C20.7242 22.9394 20.9138 22.8519 21.0742 22.6915L22.1826 21.5978C22.5471 21.2332 22.8971 20.9561 23.2326 20.7811C23.568 20.5769 23.9034 20.4748 24.268 20.4748C24.5451 20.4748 24.8367 20.5332 25.1576 20.6644C25.4784 20.7957 25.8138 20.9853 26.1784 21.2332L31.0055 24.6603C31.3846 24.9228 31.6471 25.229 31.8075 25.5936C31.9534 25.9582 32.0409 26.3228 32.0409 26.7311Z" stroke="white" stroke-width="3" stroke-miterlimit="10"/>
</svg>
